<?xml version="1.0" standalone="no"?><!DOCTYPE svg PUBLIC "-//W3C//DTD SVG 1.1//EN" "http://www.w3.org/Graphics/SVG/1.1/DTD/svg11.dtd"><svg t="1557359810278" class="icon" style="" viewBox="0 0 1024 1024" version="1.1" xmlns="http://www.w3.org/2000/svg" p-id="2289" xmlns:xlink="http://www.w3.org/1999/xlink" width="200" height="200"><defs><style type="text/css"></style></defs><path d="M952 128H72c-39.7 0-72 32.3-72 72v624c0 39.7 32.3 72 72 72h880c39.7 0 72-32.3 72-72V200c0-39.7-32.3-72-72-72zM166 346h380c19.9 0 36 16.1 36 36s-16.1 36-36 36H166c-19.9 0-36-16.1-36-36s16.1-36 36-36z m692 327H166c-19.9 0-36-16.1-36-36s16.1-36 36-36h692c19.9 0 36 16.1 36 36s-16.1 36-36 36z" p-id="2290"></path></svg>