<?xml version="1.0" standalone="no"?><!DOCTYPE svg PUBLIC "-//W3C//DTD SVG 1.1//EN" "http://www.w3.org/Graphics/SVG/1.1/DTD/svg11.dtd"><svg t="1557393896802" class="icon" style="" viewBox="0 0 1024 1024" version="1.1" xmlns="http://www.w3.org/2000/svg" p-id="2583" xmlns:xlink="http://www.w3.org/1999/xlink" width="250" height="250"><defs><style type="text/css"></style></defs><path d="M990.608696 478.608696h-208.806957l143.36-143.36a33.391304 33.391304 0 0 0-47.193043-47.193044l-190.553044 190.553044H545.391304v-142.024348l190.553044-190.553044a33.391304 33.391304 0 0 0-47.193044-47.193043l-143.36 143.36V33.391304a33.391304 33.391304 0 0 0-66.782608 0v208.806957l-143.36-143.36a33.391304 33.391304 0 0 0-47.193044 47.193043l190.553044 190.553044v142.024348h-142.024348l-190.553044-190.553044a33.391304 33.391304 0 0 0-47.193043 47.193044l143.36 143.36H33.391304a33.391304 33.391304 0 0 0 0 66.782608h208.806957l-143.36 143.36a33.391304 33.391304 0 1 0 47.193043 47.193044l190.553044-190.553044h142.024348v142.024348l-190.553044 190.553044a33.391304 33.391304 0 1 0 47.193044 47.193043l143.36-143.36v208.806957a33.391304 33.391304 0 0 0 66.782608 0v-208.806957l143.36 143.36a33.391304 33.391304 0 0 0 47.193044-47.193043l-190.553044-190.553044V545.391304h142.024348l190.553044 190.553044a33.391304 33.391304 0 0 0 47.193043-47.193044l-143.36-143.36h208.806957a33.391304 33.391304 0 0 0 0-66.782608z" fill="#444444" p-id="2584"></path></svg>